inDegrees=no
num_controls=7
num_derivatives=13
num_iterations=94
num_multipliers=7
num_parameters=0
num_slacks=7
num_states=26
objective=0.444991
objective_accelerations=0.058192
objective_balance=0.003323
objective_effort=0.023074
objective_height=0.354931
objective_ligament=0.005471
solver_duration=1363.872388
status=Solve_Succeeded
success=true
DataType=double
version=3
OpenSimVersion=4.5
endheader
time	/jointset/ground_pelvis/pelvis_tilt/value	/jointset/ground_pelvis/pelvis_tx/value	/jointset/ground_pelvis/pelvis_ty/value	/jointset/hip_l/hip_flexion_l/value	/jointset/hip_l/hip_adduction_l/value	/jointset/hip_l/hip_rotation_l/value	/jointset/back/lumbar_extension/value	/jointset/patellofemoral_l/patellar_flexion_l/value	/jointset/knee_l/knee_flexion_l/value	/jointset/knee_l/knee_adduction_l/value	/jointset/knee_l/knee_rotation_l/value	/jointset/ankle_l/ankle_angle_l/value	/jointset/subtalar_l/subtalar_angle_l/value	/jointset/ground_pelvis/pelvis_tilt/speed	/jointset/ground_pelvis/pelvis_tx/speed	/jointset/ground_pelvis/pelvis_ty/speed	/jointset/hip_l/hip_flexion_l/speed	/jointset/hip_l/hip_adduction_l/speed	/jointset/hip_l/hip_rotation_l/speed	/jointset/back/lumbar_extension/speed	/jointset/patellofemoral_l/patellar_flexion_l/speed	/jointset/knee_l/knee_flexion_l/speed	/jointset/knee_l/knee_adduction_l/speed	/jointset/knee_l/knee_rotation_l/speed	/jointset/ankle_l/ankle_angle_l/speed	/jointset/subtalar_l/subtalar_angle_l/speed	/forceset/tau_hip_flexion_l	/forceset/tau_hip_adduction_l	/forceset/tau_hip_rotation_l	/forceset/tau_knee_flexion_l	/forceset/tau_ankle_angle_l	/forceset/tau_subtalar_angle_l	/forceset/tau_lumbar_extension	lambda_cid13_p0	lambda_cid13_p1	lambda_cid13_p2	lambda_cid13_p3	lambda_cid13_p4	lambda_cid13_p5	lambda_cid14_p0	/jointset/ground_pelvis/pelvis_tilt/accel	/jointset/ground_pelvis/pelvis_tx/accel	/jointset/ground_pelvis/pelvis_ty/accel	/jointset/hip_l/hip_flexion_l/accel	/jointset/hip_l/hip_adduction_l/accel	/jointset/hip_l/hip_rotation_l/accel	/jointset/back/lumbar_extension/accel	/jointset/patellofemoral_l/patellar_flexion_l/accel	/jointset/knee_l/knee_flexion_l/accel	/jointset/knee_l/knee_adduction_l/accel	/jointset/knee_l/knee_rotation_l/accel	/jointset/ankle_l/ankle_angle_l/accel	/jointset/subtalar_l/subtalar_angle_l/accel	gamma_cid13_p0	gamma_cid13_p1	gamma_cid13_p2	gamma_cid13_p3	gamma_cid13_p4	gamma_cid13_p5	gamma_cid14_p0
0	-0.03927017659531863	0.06880090464262124	0.8959405357877096	0.1955287580552426	-0.3221144201714594	-0.4812462261327885	-0.1379045077516729	0.07015288079084794	0.07015288079084844	-0.174532863499276	-0.1158197160286997	-0.06701059314715049	0.003679455396507756	0	0	0	0	0	0	0	0	0	0	0	0	0	0.1102695765978787	-0.1055408979063421	-0.03120445568761093	-0.2444145930645533	0.2078589442989696	-0.01465726506209617	-0.05380826034099355	31.16702612582947	-1.8036030776198	3.049534391838545	-5.503495643105407	-515.1345970588312	-81.69655391314284	-39.86162684349804	-4.41789566134208	-1.736280650259223	-0.9755845535862603	12.50933650676092	-2.152013546642193	3.387774138433115	-2.817705369514161	10.47970915736073	10.47970915736826	0.7171077477679478	-0.867931759588023	2.599404517194745	-0.9464756887756921	-3.591878824384625e-08	1.062274934939919e-07	1.412984170483912e-07	1.53999985739692e-08	-3.577768905087674e-08	-6.348604171086989e-08	-9.921915762023795e-09
0.01	-0.03948074544029939	0.06871513282068842	0.8958931788776279	0.1961338213587258	-0.3222202662806244	-0.4810759690170411	-0.1380513898801836	0.0706621224208334	0.07066212242083379	-0.1745002859833933	-0.1158567536058371	-0.0668856982795755	0.003631247288121012	-0.04190474941438079	-0.0170918179804587	-0.009441161281594019	0.1204881900044229	-0.02105592516851192	0.03391567099437214	-0.02912687104337783	0.1014036235075466	0.1014036235075652	0.006517063948609363	-0.007363144273472876	0.02485826402754087	-0.009584508361812794	0.1051788293237	-0.102478555781607	-0.03016249085812274	-0.2373889820125316	0.1986591358488636	-0.01272465234903965	-0.04959759494110649	28.25379242047346	-2.222139864471369	3.218249682500426	-4.044764168080706	-515.9597687503384	-82.41791408055462	-39.87196100337663	-4.045422906019698	-1.686247331009293	-0.9238559607714295	11.73987768468711	-2.065419898262401	3.373083706320502	-2.922744772941481	9.903985558398773	9.903985558396867	0.6192749144403751	-0.6638345376976614	2.410931639681063	-0.9559043577122696	-7.311210998894132e-08	1.501768280855605e-07	2.149830401830057e-07	5.166788133597007e-08	-2.542634444391799e-07	-1.080299892641444e-07	-1.344184123407126e-08
0.02	-0.04010409344433108	0.06846031982713702	0.8957523155456649	0.197928030049734	-0.3225332792207359	-0.480570631166074	-0.1384820540793668	0.07217205960808352	0.07217205960808387	-0.1744024839888093	-0.1159660883810036	-0.06651584191289563	0.003488900906550494	-0.0825558318101053	-0.0338082343237186	-0.01870128437622139	0.2378290775050114	-0.04143336618929268	0.06701614704399377	-0.05675641413443194	0.2001391114529786	0.2001391114529784	0.01304489573853629	-0.01445943960577528	0.04899229982097331	-0.01882765463675388	0.1000880820495238	-0.09941621365686974	-0.02912052602863439	-0.2303633709605105	0.1894593273987575	-0.01079203963598087	-0.04538692954121774	25.40569604830114	-2.653039751010835	3.390031608635701	-2.756034355787246	-515.8393824942433	-82.97145323407904	-39.90237936321405	-4.167162257610828	-1.66120032281946	-0.9393769161929316	11.87987600599403	-2.016316717095972	3.224735149483008	-2.518239779049421	9.946082044937826	9.946082044937878	0.7192613160314388	-0.8145619713539277	2.454558870373061	-0.8782032714013603	-1.103054317340364e-07	1.941261626771292e-07	2.886676633176201e-07	8.793576409797095e-08	-4.727491998274831e-07	-1.52573936817419e-07	-1.696176670611872e-08
0.03	-0.04112849613478808	0.06804061701889948	0.8955194533272903	0.2008806710814943	-0.3230466288095275	-0.4797385684819213	-0.1391808530090143	0.07465651537449174	0.07465651537449278	-0.1742393335870397	-0.1161453521863476	-0.0659076434177228	0.00325620156681162	-0.1221320611752872	-0.05002724412115657	-0.02786197856742255	0.3521375808111162	-0.06111966129270205	0.09926220811042499	-0.08275353773006121	0.2962908872747485	0.2962908872747403	0.01955851657933269	-0.0213334805676094	0.07256447472964471	-0.02763239896786222	0.09597506188959085	-0.09729838039461543	-0.02847687424983816	-0.2269044312872921	0.1853683930617339	-0.009597928164639141	-0.04188898086097745	24.17175843688858	-2.992175143652648	3.485888998083346	-2.67405233085883	-515.7935806681002	-83.1298875194619	-39.95163428828305	-3.823969367981318	-1.586471094108946	-0.9031339935035975	11.12208469274584	-1.927306689642288	3.204377406688341	-2.602973540076654	9.380555574260422	9.380555574259594	0.6134789342692707	-0.6148149296029284	2.29610696990653	-0.8697009725346814	-1.417770411747277e-07	2.0559491934674e-07	3.506080281913508e-07	1.166837840290108e-07	-6.504974667619183e-07	-1.962883270539786e-07	-2.219379177886215e-08
0.04	-0.04254288433729934	0.06746188015550698	0.8951952405024196	0.2049595465862809	-0.3237533455058889	-0.4785880780228114	-0.1401321281526699	0.07808865494381147	0.07808865494381148	-0.1740118336836272	-0.1163915543555087	-0.06506621113970479	0.002937836592047831	-0.1605529342208455	-0.0656150453547104	-0.03697140567543824	0.4630759721103067	-0.08010678770326608	0.1307017020354627	-0.1072516569359702	0.389675872035072	0.3896758720350714	0.02591479606675028	-0.02784711236963449	0.09563905639000941	-0.03596078164173531	0.09186204172965687	-0.09518054713236	-0.02783322247105504	-0.2234454916140731	0.1812774587247099	-0.008403816693296321	-0.03839103218073788	22.99705405300508	-3.342162206484316	3.584026009802354	-2.750017684062161	-514.8885751506971	-83.13115050354624	-40.01813110820954	-3.936090993686136	-1.534958610042626	-0.9291234995558393	11.20585360461116	-1.876482978526906	3.063421721204289	-2.218438901105363	9.392723832648574	9.392723832651722	0.6877930453556674	-0.7424801393921224	2.35504022071172	-0.7829309399543102	-1.731306771658437e-07	2.163939733787847e-07	4.123062434102178e-07	1.452767552418866e-07	-8.274057854808099e-07	-2.399856130159669e-07	-2.746111787430034e-08
0.05	-0.04433627356244133	0.06673014078645399	0.8947799048477997	0.2101325589382072	-0.3246463408403485	-0.4771276548784548	-0.141320343299969	0.08244173605372473	0.08244173605372565	-0.173721223573992	-0.1167018740881001	-0.06399651808794911	0.002538664628195078	-0.1979157037549021	-0.08065210096600692	-0.0461050303672922	0.5709904208027453	-0.09836175220612747	0.1612450616184859	-0.1301618135800067	0.480478844145164	0.4804788441451782	0.03218489919595369	-0.03416324547074091	0.1181827077239885	-0.0437989944334374	0.0865430198868266	-0.08958029505888804	-0.02690683694025976	-0.2183809833227931	0.1756456402858177	-0.009185693240324921	-0.03412485447957446	21.24091590969859	-2.831071939128801	3.657849525794648	-1.971951450841754	-514.0366236556846	-81.18693960188203	-40.09987748770673	-3.605000605246324	-1.475940626772702	-0.9070446325298471	10.50380370569471	-1.780489894557393	3.029057454025702	-2.292870204489372	8.854863564591499	8.854863564591767	0.5933545253559612	-0.5680885167887202	2.186496595473503	-0.7731540324721561	-1.902810191558788e-07	2.190416892495055e-07	4.477267140041698e-07	1.621922926789579e-07	-9.323328269503416e-07	-2.64390275787554e-07	-3.004137558557301e-08
0.06	-0.0464970166173204	0.06585045854326814	0.8942729204105552	0.2163686284178845	-0.325717983161515	-0.475365945262833	-0.142730773245396	0.08768900281762035	0.08768900281762035	-0.1733685653173332	-0.117073736875964	-0.06270489472170715	0.0020633330196865	-0.2340237001681942	-0.0952036201812827	-0.05530116220034704	0.6756873976605637	-0.1158361850446546	0.1909589962884837	-0.1516946165615068	0.5685130028313352	0.5685130028313485	0.03832442547128852	-0.0401557234246001	0.1400251192872668	-0.05119271057289958	0.08122399804399437	-0.08398004298541424	-0.02598045140947804	-0.2133164750315129	0.1700138218469253	-0.009967569787351548	-0.02985867677841282	19.53870959322563	-2.327109238662379	3.730165186624638	-1.3367761698347	-512.4098106239342	-79.09561002600502	-40.19466306471271	-3.685136369533238	-1.437851330838471	-0.9416249277960147	10.56235923768713	-1.720376645660058	2.89753673859921	-1.942968168598083	8.838961147864453	8.838961147864429	0.6616776745819481	-0.6777491099426786	2.214792266571535	-0.6940316095063257	-2.068333277142895e-07	2.213461908818549e-07	4.820407532454938e-07	1.786161486938901e-07	-1.034229077798847e-06	-2.879826175827031e-07	-3.250849357540713e-08
0.07000000000000001	-0.0490134856673864	0.06482775256169473	0.8936734070699658	0.2236371766315297	-0.3269605183952757	-0.4733115176310589	-0.1443488748596249	0.09380389294665387	0.09380389294665382	-0.1729549702824219	-0.1175045675533741	-0.06119784900001266	0.001516497899541446	-0.2690680359540653	-0.1092461014804955	-0.06462500995448084	0.7774879227032083	-0.1325372615655796	0.2197904995352392	-0.171705809636363	0.6540044743997738	0.6540044743997779	0.04436176570890223	-0.04595346414996396	0.1612755943967726	-0.05809290181108958	0.07603266403550409	-0.07962883741434307	-0.0251498834213169	-0.2095568732482996	0.1654436452636323	-0.00997016764769381	-0.02572087145622965	18.19226172375874	-2.176932383277049	3.805260238133511	-0.9913212620665145	-510.993819051737	-77.7523446670339	-40.29998822333798	-3.383781430657626	-1.373689409207799	-0.9314983856892187	9.908723676053578	-1.625004128890324	2.855486073973606	-1.997210379759917	8.335164406608511	8.335164406607094	0.5699326792026674	-0.5221798777479032	2.063905182480889	-0.6758895306674799	-2.133639457332889e-07	1.972850450156193e-07	4.974335542532572e-07	1.839184803438702e-07	-1.081400066400207e-06	-3.022828042577496e-07	-3.528123468245245e-08
0.08	-0.0518743379248198	0.06366737319118018	0.8929799085145417	0.231907695003301	-0.3283660705889621	-0.470972869175565	-0.1461604915051686	0.1007598826404256	0.1007598826404255	-0.1724819677489634	-0.1179916543028226	-0.05948155251735494	0.0009030855370760619	-0.3029003416416783	-0.1227382979695103	-0.074098205167311	0.8760814292858718	-0.1484395770297684	0.24780316103239	-0.1903976228244413	0.7367329157792099	0.7367329157792031	0.05020592518057908	-0.05140693783191411	0.1818752714799092	-0.06450815903696566	0.07084133002700566	-0.07527763184327246	-0.02431931543314746	-0.2057972714650933	0.1608734686803365	-0.009972765508038326	-0.0215830661340503	16.89322982069949	-2.032585285770657	3.878461051907734	-0.7709221462326352	-508.8942475464142	-76.27845786783615	-40.41319315983793	-3.442730349881609	-1.327794368798848	-0.9714944195352868	9.920955545690886	-1.560624434312821	2.733768388678273	-1.679092191242501	8.286355110063921	8.286355110063583	0.6230415213945752	-0.6088957012599385	2.084632661297678	-0.5970448070435448	-2.192480030723262e-07	1.715228896333461e-07	5.11605630213694e-07	1.885032942928856e-07	-1.125040392921105e-06	-3.159834970540797e-07	-3.807369340996299e-08
0.09	-0.05506827217442169	0.06237481324367606	0.8921907222536849	0.2411496896867981	-0.3299267083697834	-0.4683585329247137	-0.1481516195335896	0.1085304859095891	0.108530485909588	-0.171951249472734	-0.1185323109440645	-0.05756208489944042	0.0002281135730391625	-0.3356808485550175	-0.1356787646568415	-0.08377219866958782	0.9717815954827541	-0.1635505952066128	0.2749310040452284	-0.207614424913306	0.8169267877541089	0.816926787754113	0.05590057736399318	-0.05666440086800675	0.2019099099139212	-0.07040149138453204	0.06540116023737305	-0.07121018663275042	-0.02348007715122843	-0.2024515910119334	0.1563980603818036	-0.009595458096832333	-0.01728963032308133	15.61866069028931	-2.040828943953558	3.95692990709122	-0.5392747580283979	-507.0806385934957	-75.12069501000892	-40.53145254133155	-3.164868827127576	-1.262896012761716	-0.9705502787811873	9.314135250893585	-1.465798301683528	2.682256128346182	-1.710940525759063	7.816768356175528	7.816768356177416	0.5371910687931919	-0.4751001437323635	1.946621527502194	-0.572849468753919	-2.175296964322541e-07	1.28311168330516e-07	5.11221395961692e-07	1.840829184677231e-07	-1.124667050199885e-06	-3.220398295309206e-07	-4.107375656739132e-08
